<svg id="Layer_1" data-name="Layer 1" xmlns="http://www.w3.org/2000/svg" xmlns:xlink="http://www.w3.org/1999/xlink" viewBox="0 0 512 512"><defs><style>.cls-1{fill:url(#linear-gradient);}.cls-2{fill:#fff;}</style><linearGradient id="linear-gradient" x1="-11.19" y1="13.03" x2="886.2" y2="829.09" gradientUnits="userSpaceOnUse"><stop offset="0" stop-color="#0bb17c"/><stop offset="0.57" stop-color="#059c6e"/></linearGradient></defs><rect class="cls-1" width="512" height="512" rx="65.07"/><path class="cls-2" d="M90,256.29q15.93,3,22.86,13t6.93,28.9V331.5q0,12.39,3.54,18t13,5.6h27.43V383.4H133q-26.55,0-36.72-11.5T86.13,338.58V295.22q0-12.37-3.84-18.72t-13-6.34H53.39V241.84H69.32q9.14,0,13-6.34t3.84-18.43V173.42q0-21.81,10.17-33.32T133,128.6h30.67v28.31H136.26q-9.43,0-13,5.45t-3.54,18.14v33.33q0,18.87-6.93,28.9T90,256.29Z"/><path class="cls-2" d="M233.88,383.4H196.13l82.6-254.8h37.14Z"/><path class="cls-2" d="M422,255.71q-15.93-3-23-13T392,213.83V180.5q0-12.39-3.54-18t-13-5.6H348.31V128.6h30.38q13.26,0,22.26,2.94a34.92,34.92,0,0,1,14.45,8.56,32.09,32.09,0,0,1,7.82,14,71.74,71.74,0,0,1,2.36,19.31v43.36q0,12.38,3.83,18.72t13,6.34h16.22v28.32H442.39q-9.15,0-13,6.34t-3.83,18.43v43.65a71.74,71.74,0,0,1-2.36,19.31,32.09,32.09,0,0,1-7.82,14A34.92,34.92,0,0,1,401,380.46q-9,2.94-22.26,2.94H348.31V355.09h27.13q9.44,0,13-5.45T392,331.5V298.17q0-18.87,7.08-28.9T422,255.71Z"/></svg>